<?xml version="1.0" encoding="UTF-8"?>
<svg version="1.1" xmlns="http://www.w3.org/2000/svg" width="512" height="512">
<path d="M0 0 C1.27384808 -0.00453111 2.54769615 -0.00906223 3.86014569 -0.01373065 C7.38008211 -0.02591835 10.89992318 -0.02570521 14.41987586 -0.02334189 C18.22229447 -0.02293266 22.02468295 -0.03398291 25.8270874 -0.04345703 C33.2703105 -0.06004402 40.71350192 -0.06556551 48.15674196 -0.06668179 C54.20814836 -0.06763321 60.25954432 -0.07174822 66.31094742 -0.07808304 C83.47833975 -0.09568802 100.64570712 -0.1049229 117.81310855 -0.10342209 C119.20029679 -0.10330222 119.20029679 -0.10330222 120.61550903 -0.10317993 C122.00439607 -0.10305729 122.00439607 -0.10305729 123.42134143 -0.10293217 C138.42939473 -0.10211915 153.4373477 -0.12126278 168.44537197 -0.14945666 C183.8658299 -0.1781962 199.2862389 -0.19199642 214.70672429 -0.19026911 C223.36006671 -0.18960565 232.0133039 -0.19507884 240.66662216 -0.21662521 C248.03332657 -0.23485094 255.39987802 -0.23917284 262.76659523 -0.22560637 C266.52284104 -0.21908412 270.27879353 -0.21893239 274.03501129 -0.23631287 C278.11259191 -0.25498586 282.18949572 -0.24247013 286.26708984 -0.22705078 C287.44648034 -0.23733791 288.62587084 -0.24762503 289.84100044 -0.25822389 C300.56514962 -0.16870068 308.46362671 2.64336803 316.28005981 10.04476929 C321.95123881 16.40946524 324.37431745 22.76228008 324.40592289 31.19497013 C324.41284753 32.41533909 324.41977217 33.63570805 324.42690665 34.89305788 C324.42958113 36.2492973 324.43214704 37.60553693 324.43461609 38.96177673 C324.44077945 40.40107124 324.44735564 41.84036402 324.45430988 43.27965492 C324.47210281 47.2399241 324.48355224 51.2001901 324.49386656 55.16048491 C324.50350587 58.55611994 324.5168163 61.95173666 324.53013552 65.34735895 C324.57771115 77.50948903 324.61037016 89.67164513 324.63943481 101.83383179 C324.64174239 102.79374805 324.64404998 103.75366432 324.64642748 104.74266896 C324.69186919 123.80476927 324.73038364 142.86688112 324.75715733 161.92901707 C324.76314638 166.1197009 324.76923204 170.31038457 324.77542114 174.50106812 C324.77772062 176.06341974 324.77772062 176.06341974 324.78006654 177.65733402 C324.80577615 194.52740864 324.86265513 211.39723346 324.93188644 228.26717962 C325.00238597 245.58931544 325.04259571 262.91132214 325.05390686 280.23359913 C325.06106359 289.95861947 325.08179226 299.68320569 325.13693428 309.40808296 C325.183867 317.69097576 325.2036409 325.97336906 325.18805278 334.2563901 C325.18095208 338.48087418 325.1867134 342.70428906 325.22763062 346.92860413 C325.26484355 350.80130882 325.26464058 354.67219952 325.235507 358.5449568 C325.23145308 359.94074622 325.24075602 361.33665695 325.2652728 362.73223693 C325.43592449 373.0722187 322.95156218 378.50121355 316.26052856 386.26742554 C308.425317 399.32098036 304.97641685 412.90543393 308.02224731 428.05648804 C309.39741481 433.13319333 310.91976156 437.89616095 313.44802856 442.51742554 C316.12962506 447.51737439 317.18726795 452.9691543 315.63162231 458.50570679 C313.20891951 463.88836447 309.5775953 467.60889217 304.26052856 470.26742554 C302.42330905 470.36096061 300.58264021 470.38933735 298.74304199 470.38768005 C297.57072525 470.38905472 296.39840851 470.39042938 295.19056702 470.3918457 C293.89800491 470.38825043 292.60544281 470.38465515 291.27371216 470.38095093 C289.90397646 470.38066897 288.53424061 470.38082696 287.164505 470.38139343 C283.43952246 470.38168107 279.71457193 470.37578981 275.98959684 470.36881948 C272.09916565 470.3625803 268.20873377 470.36198169 264.31829834 470.36079407 C256.94829505 470.35768242 249.57830654 470.34947127 242.20830977 470.33944458 C233.81906591 470.32827828 225.42982136 470.32277169 217.04057193 470.31774914 C199.78054891 470.30728852 182.5205403 470.28969229 165.26052856 470.26742554 C165.27503052 470.94434448 165.28953247 471.62126343 165.30447388 472.31869507 C165.31575317 473.21185425 165.32703247 474.10501343 165.33865356 475.02523804 C165.35315552 475.90840698 165.36765747 476.79157593 165.38259888 477.70150757 C165.15233672 482.54161804 163.39091805 485.92508803 160.26052856 489.64242554 C156.73063446 492.5104645 153.09970389 492.73971769 148.70974731 492.66195679 C139.94788335 491.25055605 131.84662116 481.90627977 125.26052856 476.26742554 C119.90604655 480.2159821 114.69795174 484.30928802 109.55740356 488.53305054 C104.50555565 492.34771121 100.49922986 492.98297551 94.26052856 492.26742554 C90.10794034 490.51411051 87.78731297 487.96735984 85.26052856 484.26742554 C84.22934738 481.14727087 84.15498282 478.28890207 84.19802856 475.01742554 C84.207052 474.12539429 84.21607544 473.23336304 84.22537231 472.31430054 C84.24277466 471.30109741 84.24277466 471.30109741 84.26052856 470.26742554 C83.12206482 470.27630798 81.98360107 470.28519043 80.81063843 470.29434204 C70.04221471 470.37569392 59.27385396 470.43551818 48.5051918 470.47467422 C42.96989305 470.49548202 37.43484388 470.5236746 31.89968872 470.56918335 C26.55042849 470.61288472 21.2014072 470.63661376 15.85198212 470.64693451 C13.81878655 470.65428247 11.78560295 470.66863051 9.75251007 470.69034576 C-10.73885092 470.90035801 -10.73885092 470.90035801 -20.73947144 466.26742554 C-21.56010071 465.8894281 -22.38072998 465.51143066 -23.22622681 465.12197876 C-36.49873137 458.65374965 -44.82807549 447.03705499 -50.01290894 433.55648804 C-51.50132096 428.86718993 -51.86618178 424.54038423 -51.87369251 419.62616634 C-51.87604474 418.96890329 -51.87839697 418.31164024 -51.88082048 417.63446012 C-51.88748576 415.4285974 -51.88705301 413.22279392 -51.88664246 411.016922 C-51.88994262 409.42073558 -51.89366851 407.82455 -51.89778394 406.22836548 C-51.90779468 401.83901769 -51.91151924 397.44968357 -51.91417325 393.06032598 C-51.91807903 388.32734623 -51.92765716 383.59437727 -51.93638611 378.86140442 C-51.9561425 367.42988878 -51.96621557 355.99837227 -51.9751139 344.56684384 C-51.97949805 339.18245628 -51.98486452 333.79806971 -51.99010277 328.41368294 C-52.00711403 310.51304421 -52.02160808 292.61240609 -52.02885151 274.71176052 C-52.03076138 270.0671482 -52.03268171 265.42253589 -52.03463745 260.77792358 C-52.03512119 259.62354029 -52.03560493 258.46915699 -52.03610333 257.27979238 C-52.04440323 238.58052536 -52.06973994 219.88132232 -52.10221813 201.18208324 C-52.13529639 181.98069501 -52.15330096 162.77933928 -52.15649575 143.5779224 C-52.1586601 132.79836723 -52.16739792 122.01890537 -52.19295692 111.23937798 C-52.21467435 102.05888661 -52.22270917 92.87851122 -52.21299014 83.69799709 C-52.20844853 79.01599396 -52.21032369 74.33423007 -52.22975159 69.65225983 C-52.24740583 65.36056437 -52.2463673 61.06928228 -52.2308543 56.7775823 C-52.22848166 55.23041711 -52.23278385 53.68322314 -52.24468295 52.13610189 C-52.35123037 37.3597565 -49.32260502 25.60887248 -39.23947144 14.51742554 C-38.41447144 13.77492554 -37.58947144 13.03242554 -36.73947144 12.26742554 C-35.85259644 11.44242554 -34.96572144 10.61742554 -34.05197144 9.76742554 C-23.86390016 1.46506411 -12.68847684 -0.03319571 0 0 Z " fill="#FEFEFE" transform="translate(119.73947143554688,9.732574462890625)"/>
<path d="M0 0 C1.27384808 -0.00453111 2.54769615 -0.00906223 3.86014569 -0.01373065 C7.38008211 -0.02591835 10.89992318 -0.02570521 14.41987586 -0.02334189 C18.22229447 -0.02293266 22.02468295 -0.03398291 25.8270874 -0.04345703 C33.2703105 -0.06004402 40.71350192 -0.06556551 48.15674196 -0.06668179 C54.20814836 -0.06763321 60.25954432 -0.07174822 66.31094742 -0.07808304 C83.47833975 -0.09568802 100.64570712 -0.1049229 117.81310855 -0.10342209 C119.20029679 -0.10330222 119.20029679 -0.10330222 120.61550903 -0.10317993 C122.00439607 -0.10305729 122.00439607 -0.10305729 123.42134143 -0.10293217 C138.42939473 -0.10211915 153.4373477 -0.12126278 168.44537197 -0.14945666 C183.8658299 -0.1781962 199.2862389 -0.19199642 214.70672429 -0.19026911 C223.36006671 -0.18960565 232.0133039 -0.19507884 240.66662216 -0.21662521 C248.03332657 -0.23485094 255.39987802 -0.23917284 262.76659523 -0.22560637 C266.52284104 -0.21908412 270.27879353 -0.21893239 274.03501129 -0.23631287 C278.11259191 -0.25498586 282.18949572 -0.24247013 286.26708984 -0.22705078 C287.44648034 -0.23733791 288.62587084 -0.24762503 289.84100044 -0.25822389 C300.56514962 -0.16870068 308.46362671 2.64336803 316.28005981 10.04476929 C321.95123881 16.40946524 324.37431745 22.76228008 324.40592289 31.19497013 C324.41284753 32.41533909 324.41977217 33.63570805 324.42690665 34.89305788 C324.42958113 36.2492973 324.43214704 37.60553693 324.43461609 38.96177673 C324.44077945 40.40107124 324.44735564 41.84036402 324.45430988 43.27965492 C324.47210281 47.2399241 324.48355224 51.2001901 324.49386656 55.16048491 C324.50350587 58.55611994 324.5168163 61.95173666 324.53013552 65.34735895 C324.57771115 77.50948903 324.61037016 89.67164513 324.63943481 101.83383179 C324.64174239 102.79374805 324.64404998 103.75366432 324.64642748 104.74266896 C324.69186919 123.80476927 324.73038364 142.86688112 324.75715733 161.92901707 C324.76314638 166.1197009 324.76923204 170.31038457 324.77542114 174.50106812 C324.77772062 176.06341974 324.77772062 176.06341974 324.78006654 177.65733402 C324.80577615 194.52740864 324.86265513 211.39723346 324.93188644 228.26717962 C325.00238597 245.58931544 325.04259571 262.91132214 325.05390686 280.23359913 C325.06106359 289.95861947 325.08179226 299.68320569 325.13693428 309.40808296 C325.183867 317.69097576 325.2036409 325.97336906 325.18805278 334.2563901 C325.18095208 338.48087418 325.1867134 342.70428906 325.22763062 346.92860413 C325.26484355 350.80130882 325.26464058 354.67219952 325.235507 358.5449568 C325.23145308 359.94074622 325.24075602 361.33665695 325.2652728 362.73223693 C325.43592449 373.0722187 322.95156218 378.50121355 316.26052856 386.26742554 C308.425317 399.32098036 304.97641685 412.90543393 308.02224731 428.05648804 C309.39741481 433.13319333 310.91976156 437.89616095 313.44802856 442.51742554 C316.12962506 447.51737439 317.18726795 452.9691543 315.63162231 458.50570679 C313.20891951 463.88836447 309.5775953 467.60889217 304.26052856 470.26742554 C302.42330905 470.36096061 300.58264021 470.38933735 298.74304199 470.38768005 C297.57072525 470.38905472 296.39840851 470.39042938 295.19056702 470.3918457 C293.89800491 470.38825043 292.60544281 470.38465515 291.27371216 470.38095093 C289.90397646 470.38066897 288.53424061 470.38082696 287.164505 470.38139343 C283.43952246 470.38168107 279.71457193 470.37578981 275.98959684 470.36881948 C272.09916565 470.3625803 268.20873377 470.36198169 264.31829834 470.36079407 C256.94829505 470.35768242 249.57830654 470.34947127 242.20830977 470.33944458 C233.81906591 470.32827828 225.42982136 470.32277169 217.04057193 470.31774914 C199.78054891 470.30728852 182.5205403 470.28969229 165.26052856 470.26742554 C165.27503052 470.94434448 165.28953247 471.62126343 165.30447388 472.31869507 C165.31575317 473.21185425 165.32703247 474.10501343 165.33865356 475.02523804 C165.35315552 475.90840698 165.36765747 476.79157593 165.38259888 477.70150757 C165.15233672 482.54161804 163.39091805 485.92508803 160.26052856 489.64242554 C156.73063446 492.5104645 153.09970389 492.73971769 148.70974731 492.66195679 C139.94788335 491.25055605 131.84662116 481.90627977 125.26052856 476.26742554 C119.90604655 480.2159821 114.69795174 484.30928802 109.55740356 488.53305054 C104.50555565 492.34771121 100.49922986 492.98297551 94.26052856 492.26742554 C90.10794034 490.51411051 87.78731297 487.96735984 85.26052856 484.26742554 C84.22934738 481.14727087 84.15498282 478.28890207 84.19802856 475.01742554 C84.207052 474.12539429 84.21607544 473.23336304 84.22537231 472.31430054 C84.24277466 471.30109741 84.24277466 471.30109741 84.26052856 470.26742554 C83.12206482 470.27630798 81.98360107 470.28519043 80.81063843 470.29434204 C70.04221471 470.37569392 59.27385396 470.43551818 48.5051918 470.47467422 C42.96989305 470.49548202 37.43484388 470.5236746 31.89968872 470.56918335 C26.55042849 470.61288472 21.2014072 470.63661376 15.85198212 470.64693451 C13.81878655 470.65428247 11.78560295 470.66863051 9.75251007 470.69034576 C-10.73885092 470.90035801 -10.73885092 470.90035801 -20.73947144 466.26742554 C-21.56010071 465.8894281 -22.38072998 465.51143066 -23.22622681 465.12197876 C-36.49873137 458.65374965 -44.82807549 447.03705499 -50.01290894 433.55648804 C-51.50132096 428.86718993 -51.86618178 424.54038423 -51.87369251 419.62616634 C-51.87604474 418.96890329 -51.87839697 418.31164024 -51.88082048 417.63446012 C-51.88748576 415.4285974 -51.88705301 413.22279392 -51.88664246 411.016922 C-51.88994262 409.42073558 -51.89366851 407.82455 -51.89778394 406.22836548 C-51.90779468 401.83901769 -51.91151924 397.44968357 -51.91417325 393.06032598 C-51.91807903 388.32734623 -51.92765716 383.59437727 -51.93638611 378.86140442 C-51.9561425 367.42988878 -51.96621557 355.99837227 -51.9751139 344.56684384 C-51.97949805 339.18245628 -51.98486452 333.79806971 -51.99010277 328.41368294 C-52.00711403 310.51304421 -52.02160808 292.61240609 -52.02885151 274.71176052 C-52.03076138 270.0671482 -52.03268171 265.42253589 -52.03463745 260.77792358 C-52.03512119 259.62354029 -52.03560493 258.46915699 -52.03610333 257.27979238 C-52.04440323 238.58052536 -52.06973994 219.88132232 -52.10221813 201.18208324 C-52.13529639 181.98069501 -52.15330096 162.77933928 -52.15649575 143.5779224 C-52.1586601 132.79836723 -52.16739792 122.01890537 -52.19295692 111.23937798 C-52.21467435 102.05888661 -52.22270917 92.87851122 -52.21299014 83.69799709 C-52.20844853 79.01599396 -52.21032369 74.33423007 -52.22975159 69.65225983 C-52.24740583 65.36056437 -52.2463673 61.06928228 -52.2308543 56.7775823 C-52.22848166 55.23041711 -52.23278385 53.68322314 -52.24468295 52.13610189 C-52.35123037 37.3597565 -49.32260502 25.60887248 -39.23947144 14.51742554 C-38.41447144 13.77492554 -37.58947144 13.03242554 -36.73947144 12.26742554 C-35.85259644 11.44242554 -34.96572144 10.61742554 -34.05197144 9.76742554 C-23.86390016 1.46506411 -12.68847684 -0.03319571 0 0 Z M25.26052856 16.26742554 C25.26052856 130.77742554 25.26052856 245.28742554 25.26052856 363.26742554 C118.65052856 363.26742554 212.04052856 363.26742554 308.26052856 363.26742554 C308.37704074 303.5174368 308.37704074 303.5174368 308.45584106 243.76742554 C308.46367276 235.71664396 308.47175475 227.66586269 308.48025513 219.61508179 C308.48183762 218.10149389 308.48183762 218.10149389 308.48345208 216.55732846 C308.5008576 200.25882899 308.53239743 183.96038586 308.56913975 167.66191982 C308.60652283 150.93997086 308.62875884 134.21805143 308.63688254 117.4960624 C308.64237578 107.17455913 308.65973653 96.85321505 308.69219443 86.53176077 C308.71330982 79.45756081 308.71973536 72.38344336 308.71453407 65.30921416 C308.71196765 61.22542424 308.71594988 57.14191284 308.73735046 53.05817223 C308.75679808 49.31985572 308.75781055 45.58200536 308.74412414 41.84366752 C308.7416305 39.84983442 308.75889859 37.85600689 308.7768538 35.86225307 C308.82561905 27.27086722 308.82561905 27.27086722 304.26052856 20.26742554 C298.38463728 15.75281936 293.33646031 15.70507364 286.09257507 15.78640747 C284.97855316 15.7829834 283.86453125 15.77955933 282.7167511 15.77603149 C278.97660636 15.76941702 275.23717997 15.79149351 271.49710083 15.81332397 C268.77289628 15.81677569 266.04870502 15.81419274 263.32450008 15.81186295 C256.76772916 15.80973895 250.21117791 15.82818219 243.65446338 15.85386826 C236.06801142 15.88269715 228.48169092 15.88584881 220.89517212 15.88900757 C200.87108952 15.90999881 180.84705573 15.9658434 160.82302856 16.01742554 C116.08740356 16.09992554 71.35177856 16.18242554 25.26052856 16.26742554 Z " fill="#052647" transform="translate(119.73947143554688,9.732574462890625)"/>
<path d="M0 0 C1.05964462 -0.0071553 2.11928925 -0.01431061 3.21104431 -0.02168274 C4.36849655 -0.02437164 5.52594879 -0.02706055 6.71847534 -0.02983093 C7.94169998 -0.03640213 9.16492462 -0.04297333 10.42521667 -0.04974365 C14.47853847 -0.06947441 18.53182071 -0.08114407 22.58517456 -0.09111023 C23.98415013 -0.09515991 25.3831255 -0.0992769 26.78210068 -0.10346031 C33.3580594 -0.12250475 39.93400697 -0.1367355 46.50998795 -0.14507228 C54.08230787 -0.15483239 61.65433451 -0.18112264 69.22655118 -0.22157317 C75.09086091 -0.25181675 80.95508699 -0.26654906 86.81947315 -0.26985329 C90.31642812 -0.27219503 93.81306955 -0.28103962 97.30994034 -0.30631447 C101.21834753 -0.33410765 105.12637471 -0.32973891 109.03488159 -0.32279968 C110.75284187 -0.34201477 110.75284187 -0.34201477 112.50550842 -0.36161804 C120.71680839 -0.30865529 127.59756153 1.15074345 134.35079956 6.00654602 C140.87402544 12.90008604 144.86568019 19.58030469 144.91203308 29.22372437 C144.92276604 30.76053864 144.92276604 30.76053864 144.93371582 32.32839966 C144.93640472 33.4468779 144.93909363 34.56535614 144.94186401 35.71772766 C144.94843521 36.90033173 144.95500641 38.08293579 144.96177673 39.30137634 C144.98150643 43.22002011 144.9931783 47.13865045 145.00314331 51.05732727 C145.0071933 52.41046608 145.0113103 53.76360469 145.01549339 55.11674309 C145.03453898 61.47859542 145.04876846 67.84043623 145.05710536 74.20231158 C145.06686034 81.52389392 145.09313656 88.84517253 145.13360626 96.16664797 C145.16387413 101.83904292 145.17858449 107.51135136 145.18188637 113.18382543 C145.18422573 116.56512192 145.19303826 119.94609375 145.21834755 123.32730293 C145.24278382 127.10872942 145.24176486 130.88937083 145.23483276 134.67085266 C145.25404785 136.3273156 145.25404785 136.3273156 145.27365112 138.01724243 C145.20686805 148.06075813 142.88370042 156.99457517 135.83517456 164.42451477 C130.11560648 169.18362708 123.13655309 172.25171014 115.70140076 172.30780029 C114.13095253 172.32286873 114.13095253 172.32286873 112.52877808 172.33824158 C111.38022339 172.34407257 110.2316687 172.34990356 109.04830933 172.35591125 C107.23314064 172.37058693 107.23314064 172.37058693 105.38130188 172.38555908 C101.36463381 172.41554299 97.34800142 172.43721949 93.33126831 172.45576477 C92.64649501 172.45906209 91.9617217 172.46235941 91.25619769 172.46575665 C84.78919546 172.49655394 78.3221884 172.52324453 71.85513401 172.54017544 C63.60480387 172.56203237 55.35512862 172.60389127 47.10506016 172.67361301 C41.29339921 172.72104315 35.48191364 172.74513471 29.67006534 172.75237232 C26.20526448 172.75730306 22.74120179 172.77213173 19.27661324 172.81211662 C15.39954281 172.85626933 11.52329485 172.85204422 7.64596558 172.8441925 C5.95046066 172.87419342 5.95046066 172.87419342 4.22070312 172.90480042 C-4.83166384 172.82297414 -12.71602481 170.26990817 -19.50659847 164.07494259 C-25.61604091 157.49909116 -28.33976731 150.83954877 -28.38230896 141.89894104 C-28.38946426 140.86171906 -28.39661957 139.82449707 -28.4039917 138.75584412 C-28.4066806 137.62846832 -28.40936951 136.50109253 -28.41213989 135.33955383 C-28.41871109 134.14383759 -28.42528229 132.94812134 -28.43205261 131.71617126 C-28.45175634 127.76088595 -28.46344715 123.80561395 -28.47341919 119.85029602 C-28.47746965 118.48441804 -28.48158666 117.11854025 -28.48576927 115.75266266 C-28.50480302 109.33422063 -28.51903814 102.91578998 -28.52738124 96.49732518 C-28.53714878 89.10668391 -28.56346296 81.71634252 -28.60388213 74.32580686 C-28.63411041 68.6007695 -28.64885642 62.87581781 -28.65216225 57.15070224 C-28.65450496 53.73706899 -28.66336292 50.32375677 -28.68862343 46.91020966 C-28.71299598 43.09735291 -28.7120527 39.2852773 -28.70510864 35.47236633 C-28.7179187 34.35308746 -28.73072876 33.23380859 -28.743927 32.08061218 C-28.69843562 25.21151293 -27.60826312 20.14524225 -24.23513794 14.14717102 C-23.86699132 13.49161854 -23.4988447 12.83606606 -23.11954212 12.16064835 C-19.74970954 6.48204218 -13.6777548 2.52058314 -7.41218758 0.5836153 C-4.89591737 0.07916574 -2.56720555 0.01192663 0 0 Z " fill="#98CBFE" transform="translate(228.23513793945313,67.85282897949219)"/>
<path d="M0 0 C0 114.51 0 229.02 0 347 C-6.93 347.66 -13.86 348.32 -21 349 C-29.32844067 351.8880883 -35.75142788 354.97996244 -42.42578125 360.6796875 C-44 362 -44 362 -45 362 C-45.09157042 319.11103768 -45.1620463 276.22208666 -45.20426132 233.33304594 C-45.2092641 228.2687427 -45.21444139 223.20443966 -45.21972656 218.14013672 C-45.2207758 217.13193203 -45.22182505 216.12372734 -45.22290608 215.084971 C-45.24030775 198.7637174 -45.27184415 182.4425202 -45.30861118 166.12130006 C-45.34602719 149.37221149 -45.36823725 132.62315244 -45.37635398 115.8740238 C-45.38184037 105.54024825 -45.39916407 95.20663213 -45.43166587 84.87290566 C-45.45282188 77.78512753 -45.45919757 70.69743174 -45.45400551 63.60962434 C-45.45144543 59.52128821 -45.45534918 55.43323053 -45.4768219 51.344944 C-45.49635874 47.59778362 -45.49722425 43.85108761 -45.48359558 40.10390536 C-45.48111855 38.11501716 -45.49830649 36.12613401 -45.51632524 34.13732588 C-45.44843619 23.93121749 -43.42380268 15.321004 -36.12890625 7.828125 C-24.76120186 -1.93350005 -16.15043909 0 0 0 Z " fill="#FE9898" transform="translate(129,26)"/>
<path d="M0 0 C1.61903653 -0.00298657 1.61903653 -0.00298657 3.27078086 -0.00603348 C5.04071624 -0.00166422 5.04071624 -0.00166422 6.84640789 0.00279331 C8.10433059 0.00193889 9.36225329 0.00108446 10.65829486 0.00020415 C14.14729279 -0.00203162 17.63626002 0.00196793 21.12525403 0.00698221 C24.88866415 0.01129968 28.65207253 0.00983936 32.41548443 0.00907993 C38.93500269 0.00855552 45.45451094 0.01169369 51.97402668 0.01731777 C61.40015785 0.02544397 70.82628419 0.02804914 80.25241848 0.02930576 C95.54560711 0.03149452 110.8387904 0.03814983 126.13197613 0.04760838 C140.98809565 0.05678705 155.84421372 0.06386566 170.7003355 0.06811619 C171.61602953 0.06837891 172.53172355 0.06864164 173.47516588 0.06891232 C178.06892258 0.07021736 182.66267928 0.07148106 187.25643599 0.07272422 C225.36770375 0.08309134 263.47896557 0.10070488 301.59022808 0.12304783 C301.11972027 1.11562595 300.64921246 2.10820408 300.16444683 3.13086033 C296.03717077 12.05947896 293.19107777 20.36548782 291.59022808 30.12304783 C290.36732697 30.12451439 289.14442585 30.12598095 287.88446712 30.12749195 C258.86795238 30.16317893 229.85152882 30.21939833 200.83510907 30.30096878 C197.26520124 30.31098647 193.69529294 30.32083056 190.12538433 30.33056736 C189.41466726 30.33250873 188.70395018 30.33445011 187.97169623 30.33645031 C176.45751954 30.3674879 164.9433628 30.38445585 153.42915216 30.39624205 C141.61818625 30.40864453 129.80732515 30.4361254 117.99642539 30.47766089 C111.36085296 30.50056215 104.72539626 30.51595469 98.08977795 30.51493168 C91.84844687 30.51418884 85.60744763 30.5319882 79.36620235 30.56421566 C77.07161629 30.57275789 74.7769932 30.57443552 72.48239803 30.56885052 C69.35675515 30.56225419 66.23218165 30.58002678 63.10664654 30.6040659 C61.73505504 30.59242527 61.73505504 30.59242527 60.33575463 30.58054948 C55.34241966 30.64181063 55.34241966 30.64181063 50.99154568 32.9289217 C49.25750283 35.19846201 49.25750283 35.19846201 49.65272808 38.74804783 C50.26531258 42.37821707 50.26531258 42.37821707 53.59022808 44.12304783 C56.05407711 44.3626983 58.41563384 44.49546783 60.88319683 44.53711033 C61.94223972 44.56615955 61.94223972 44.56615955 63.02267742 44.59579563 C65.2742387 44.65550007 67.52585136 44.70193923 69.77772808 44.74804783 C71.30574497 44.78623611 72.83374053 44.82528835 74.36171246 44.86523533 C78.104439 44.96281864 81.84694271 45.04245585 85.59022808 45.12304783 C85.59022808 55.35304783 85.59022808 65.58304783 85.59022808 76.12304783 C74.19333023 76.21370973 62.79667509 76.28697135 51.39949703 76.33029652 C46.10632879 76.35109893 40.8134218 76.37928136 35.52040386 76.42480564 C30.40456128 76.46852664 25.28896872 76.49224007 20.17295361 76.5025568 C18.22907105 76.5099013 16.28520092 76.52424242 14.3414259 76.54596806 C-1.28674332 76.71356859 -13.42663846 75.43785436 -25.27695942 64.38086033 C-33.36116095 56.01908964 -36.25401988 46.33107645 -36.135602 34.91870213 C-35.57455506 24.46603393 -31.05969267 16.21020202 -23.47227192 8.99804783 C-16.24592257 3.08957374 -9.40383552 -0.00383673 0 0 Z " fill="#FDFDFD" transform="translate(119.40977191925049,388.8769521713257)"/>
<path d="M0 0 C1.05964462 -0.0071553 2.11928925 -0.01431061 3.21104431 -0.02168274 C4.36849655 -0.02437164 5.52594879 -0.02706055 6.71847534 -0.02983093 C7.94169998 -0.03640213 9.16492462 -0.04297333 10.42521667 -0.04974365 C14.47853847 -0.06947441 18.53182071 -0.08114407 22.58517456 -0.09111023 C23.98415013 -0.09515991 25.3831255 -0.0992769 26.78210068 -0.10346031 C33.3580594 -0.12250475 39.93400697 -0.1367355 46.50998795 -0.14507228 C54.08230787 -0.15483239 61.65433451 -0.18112264 69.22655118 -0.22157317 C75.09086091 -0.25181675 80.95508699 -0.26654906 86.81947315 -0.26985329 C90.31642812 -0.27219503 93.81306955 -0.28103962 97.30994034 -0.30631447 C101.21834753 -0.33410765 105.12637471 -0.32973891 109.03488159 -0.32279968 C110.75284187 -0.34201477 110.75284187 -0.34201477 112.50550842 -0.36161804 C120.71680839 -0.30865529 127.59756153 1.15074345 134.35079956 6.00654602 C140.87402544 12.90008604 144.86568019 19.58030469 144.91203308 29.22372437 C144.92276604 30.76053864 144.92276604 30.76053864 144.93371582 32.32839966 C144.93640472 33.4468779 144.93909363 34.56535614 144.94186401 35.71772766 C144.94843521 36.90033173 144.95500641 38.08293579 144.96177673 39.30137634 C144.98150643 43.22002011 144.9931783 47.13865045 145.00314331 51.05732727 C145.0071933 52.41046608 145.0113103 53.76360469 145.01549339 55.11674309 C145.03453898 61.47859542 145.04876846 67.84043623 145.05710536 74.20231158 C145.06686034 81.52389392 145.09313656 88.84517253 145.13360626 96.16664797 C145.16387413 101.83904292 145.17858449 107.51135136 145.18188637 113.18382543 C145.18422573 116.56512192 145.19303826 119.94609375 145.21834755 123.32730293 C145.24278382 127.10872942 145.24176486 130.88937083 145.23483276 134.67085266 C145.25404785 136.3273156 145.25404785 136.3273156 145.27365112 138.01724243 C145.20686805 148.06075813 142.88370042 156.99457517 135.83517456 164.42451477 C130.11560648 169.18362708 123.13655309 172.25171014 115.70140076 172.30780029 C114.13095253 172.32286873 114.13095253 172.32286873 112.52877808 172.33824158 C111.38022339 172.34407257 110.2316687 172.34990356 109.04830933 172.35591125 C107.23314064 172.37058693 107.23314064 172.37058693 105.38130188 172.38555908 C101.36463381 172.41554299 97.34800142 172.43721949 93.33126831 172.45576477 C92.64649501 172.45906209 91.9617217 172.46235941 91.25619769 172.46575665 C84.78919546 172.49655394 78.3221884 172.52324453 71.85513401 172.54017544 C63.60480387 172.56203237 55.35512862 172.60389127 47.10506016 172.67361301 C41.29339921 172.72104315 35.48191364 172.74513471 29.67006534 172.75237232 C26.20526448 172.75730306 22.74120179 172.77213173 19.27661324 172.81211662 C15.39954281 172.85626933 11.52329485 172.85204422 7.64596558 172.8441925 C5.95046066 172.87419342 5.95046066 172.87419342 4.22070312 172.90480042 C-4.83166384 172.82297414 -12.71602481 170.26990817 -19.50659847 164.07494259 C-25.61604091 157.49909116 -28.33976731 150.83954877 -28.38230896 141.89894104 C-28.38946426 140.86171906 -28.39661957 139.82449707 -28.4039917 138.75584412 C-28.4066806 137.62846832 -28.40936951 136.50109253 -28.41213989 135.33955383 C-28.41871109 134.14383759 -28.42528229 132.94812134 -28.43205261 131.71617126 C-28.45175634 127.76088595 -28.46344715 123.80561395 -28.47341919 119.85029602 C-28.47746965 118.48441804 -28.48158666 117.11854025 -28.48576927 115.75266266 C-28.50480302 109.33422063 -28.51903814 102.91578998 -28.52738124 96.49732518 C-28.53714878 89.10668391 -28.56346296 81.71634252 -28.60388213 74.32580686 C-28.63411041 68.6007695 -28.64885642 62.87581781 -28.65216225 57.15070224 C-28.65450496 53.73706899 -28.66336292 50.32375677 -28.68862343 46.91020966 C-28.71299598 43.09735291 -28.7120527 39.2852773 -28.70510864 35.47236633 C-28.7179187 34.35308746 -28.73072876 33.23380859 -28.743927 32.08061218 C-28.69843562 25.21151293 -27.60826312 20.14524225 -24.23513794 14.14717102 C-23.86699132 13.49161854 -23.4988447 12.83606606 -23.11954212 12.16064835 C-19.74970954 6.48204218 -13.6777548 2.52058314 -7.41218758 0.5836153 C-4.89591737 0.07916574 -2.56720555 0.01192663 0 0 Z M-9.23513794 19.14717102 C-13.21960027 24.55620429 -12.65851055 30.50825687 -12.62332153 36.94819641 C-12.62857849 38.13097672 -12.63383545 39.31375702 -12.63925171 40.53237915 C-12.65016774 43.76378695 -12.6476452 46.99482409 -12.63811445 50.22622609 C-12.63049714 53.61381741 -12.63756904 57.00138471 -12.64227295 60.38897705 C-12.64772375 66.07575398 -12.64055594 71.76241384 -12.62625122 77.44917297 C-12.60991805 84.01807657 -12.61522059 90.58670089 -12.63173044 97.15559775 C-12.64535528 102.80333278 -12.64726035 108.45098387 -12.63941443 114.09873003 C-12.63474437 117.46853648 -12.63409473 120.83821176 -12.6440239 124.20800972 C-12.6516337 127.96404597 -12.64004012 131.71954404 -12.62332153 135.47554016 C-12.62939423 136.58892761 -12.63546692 137.70231506 -12.64172363 138.84944153 C-12.63326416 139.87417068 -12.62480469 140.89889984 -12.61608887 141.9546814 C-12.61495779 142.84194947 -12.61382671 143.72921755 -12.61266136 144.64337254 C-12.00268072 148.68886617 -9.89833006 151.36958575 -7.2895813 154.42831421 C-2.4836577 157.13279864 2.21306483 156.69512698 7.63595581 156.64888 C8.83809723 156.65428299 10.04023865 156.65968597 11.27880859 156.66525269 C14.56823221 156.6756056 17.85700069 156.6680505 21.14638138 156.65154147 C24.59269855 156.63766773 28.03898601 156.64415369 31.48532104 156.64767456 C37.27227196 156.65037486 43.05901524 156.63691677 48.84591675 156.61372375 C55.53125586 156.58711498 62.21624789 156.58536749 68.90162182 156.59711212 C75.33932614 156.60790079 81.77690522 156.60169433 88.21459961 156.58755684 C90.9513445 156.58180644 93.68799745 156.58187223 96.42474365 156.58662224 C100.24796549 156.58952918 104.07061832 156.57305083 107.89376831 156.55122375 C109.02742828 156.5557254 110.16108826 156.56022705 111.32910156 156.56486511 C112.37210419 156.55496048 113.41510681 156.54505585 114.48971558 156.53485107 C115.84468895 156.53120623 115.84468895 156.53120623 117.22703552 156.52748775 C121.21384401 155.9300277 123.88589339 154.15170665 126.51486206 151.14717102 C128.6116902 147.792246 128.89347175 145.05693531 128.91203308 141.19519043 C128.91918839 140.1732106 128.92634369 139.15123077 128.93371582 138.09828186 C128.93640472 136.97770386 128.93909363 135.85712585 128.94186401 134.70259094 C128.95172081 132.93148705 128.95172081 132.93148705 128.96177673 131.12460327 C128.98152211 127.20895535 128.9931763 123.29332083 129.00314331 119.37763977 C129.00719173 118.02841484 129.01130868 116.67919011 129.01549339 115.32996559 C129.03453899 108.99107941 129.04877169 102.65220483 129.05710536 96.31329554 C129.06687772 89.00127357 129.09319947 81.68955431 129.13360626 74.377639 C129.16378379 68.72232725 129.17857574 63.06710221 129.18188637 57.41171151 C129.1842349 54.03559034 129.19316902 50.65979281 129.21834755 47.28375816 C129.24263625 43.51557036 129.24179229 39.74817644 129.23483276 35.97993469 C129.24764282 34.86542938 129.26045288 33.75092407 129.27365112 32.60264587 C129.23371391 26.67609717 129.06822239 22.6382608 124.76486206 18.14717102 C119.35981606 14.16934986 113.41454203 14.71701667 106.97970581 14.74311829 C105.7985318 14.73625504 104.61735779 14.72939178 103.40039062 14.72232056 C100.17305889 14.70718929 96.94609062 14.70554898 93.71873856 14.71126294 C91.01991679 14.71436056 88.32114694 14.70825612 85.62233257 14.7022242 C79.25410807 14.68819531 72.88601777 14.68972704 66.51779175 14.7011261 C59.95680177 14.71261095 53.39622039 14.69852217 46.83528423 14.67172962 C41.19262413 14.6495532 35.55009212 14.64293943 29.90739155 14.64880604 C26.54141256 14.65217161 23.17569558 14.64978738 19.80975342 14.63255501 C16.05619849 14.61768701 12.30354493 14.62829247 8.55001831 14.64546204 C7.44022614 14.63579407 6.33043396 14.6261261 5.18701172 14.61616516 C-0.72566824 14.67283204 -4.7523535 14.86061167 -9.23513794 19.14717102 Z " fill="#052749" transform="translate(228.23513793945313,67.85282897949219)"/>
<path d="M0 0 C41.91 0 83.82 0 127 0 C128.98 7.92 128.98 7.92 131 16 C132.51776554 20.01929248 132.51776554 20.01929248 134.16796875 23.984375 C134.99476099 25.98730832 135.61515174 27.86710601 136 30 C135 31 135 31 132.76860714 31.12304783 C131.27668519 31.12166514 131.27668519 31.12166514 129.75462341 31.12025452 C128.61733795 31.12162918 127.48005249 31.12300385 126.30830383 31.12442017 C124.4201722 31.11902725 124.4201722 31.11902725 122.49389648 31.11352539 C121.17701843 31.11367142 119.86014038 31.11381744 118.50335693 31.1139679 C114.88161732 31.11425587 111.25991054 31.10835924 107.63817859 31.10139394 C103.85718116 31.0951603 100.07618305 31.09455659 96.29518127 31.09336853 C89.1305571 31.09025524 81.9659481 31.08204189 74.80133063 31.07201904 C66.64668838 31.06085782 58.49204543 31.05534743 50.33739746 31.05032361 C33.55825467 31.03985928 16.77913281 31.02151383 0 31 C0 20.77 0 10.54 0 0 Z " fill="#F8F9FA" transform="translate(284,434)"/>
<path d="M0 0 C0.71536596 -0.00779995 1.43073192 -0.01559991 2.16777563 -0.02363622 C4.55952134 -0.04354483 6.94967379 -0.02779784 9.34143066 -0.01205444 C11.05818103 -0.01883113 12.77492412 -0.02773455 14.49165344 -0.03860474 C19.1508167 -0.06139872 23.80942638 -0.0525614 28.46859932 -0.03670931 C33.34431577 -0.02405082 38.21998481 -0.03579028 43.09570312 -0.04364014 C51.28365591 -0.05273685 59.47138321 -0.04074822 67.65930176 -0.01693726 C77.12583089 0.01027407 86.5918216 0.00145992 96.05833769 -0.02606928 C104.18588479 -0.04875873 112.3132698 -0.05196124 120.44083834 -0.03887594 C125.29517728 -0.03108052 130.14926313 -0.03004232 135.00358582 -0.04655838 C139.56743767 -0.0610015 144.13059533 -0.05098454 148.69437218 -0.0220871 C150.36932408 -0.0154754 152.04433441 -0.01737544 153.71926308 -0.02840042 C156.0060949 -0.04206542 158.29070255 -0.0249328 160.57739258 0 C161.8567997 0.00188513 163.13620682 0.00377026 164.45438385 0.00571251 C168.67667365 0.80248512 170.16519784 2.29744588 172.78869629 5.63491821 C173.35119629 8.69741821 173.35119629 8.69741821 172.78869629 11.63491821 C170.92159719 13.93767377 169.43221888 15.31315692 166.78869629 16.63491821 C164.5197049 16.7403188 162.24753644 16.77888972 159.97612 16.78881836 C158.9130413 16.79539174 158.9130413 16.79539174 157.82848626 16.80209792 C155.44176653 16.81550599 153.05508374 16.82166924 150.66833496 16.82778931 C148.96188692 16.83568864 147.25544056 16.84395749 145.54899597 16.85256958 C139.93490193 16.87880737 134.32080036 16.89409812 128.70666504 16.90835571 C126.77576505 16.91371451 124.84486511 16.91909202 122.91396523 16.92448807 C114.88369869 16.94611861 106.85343417 16.96485646 98.82314587 16.97611046 C87.30525641 16.99235705 75.78770392 17.02555 64.26994151 17.08251131 C56.17647167 17.12117662 48.08309209 17.14073905 39.98953229 17.14603102 C35.15297073 17.14968893 30.31676841 17.16175674 25.48030663 17.19413376 C20.93053748 17.2241548 16.38134609 17.23054769 11.8314991 17.21875 C10.1613538 17.21852877 8.49118216 17.22687479 6.82112885 17.24440384 C4.54079517 17.2670362 2.26256708 17.25883085 -0.01777649 17.24291992 C-1.29370572 17.24623007 -2.56963495 17.24954021 -3.88422871 17.25295067 C-8.10617371 16.46868851 -9.58510898 14.96500311 -12.21130371 11.63491821 C-12.83630371 8.63491821 -12.83630371 8.63491821 -12.21130371 5.63491821 C-8.44559086 0.86038709 -6.00260662 0.00884447 0 0 Z " fill="#0A2B4B" transform="translate(206.2113037109375,272.3650817871094)"/>
<path d="M0 0 C1.08507631 -0.00935994 1.08507631 -0.00935994 2.19207335 -0.01890898 C4.61670212 -0.03486756 7.04032954 -0.0222243 9.46496582 -0.00964355 C11.20289192 -0.01506343 12.94081342 -0.02218533 14.6787262 -0.03088379 C19.39979607 -0.04913617 24.12051672 -0.04204174 28.84159279 -0.02936745 C33.77917049 -0.01924969 38.71671802 -0.02862972 43.65429688 -0.03491211 C51.9465472 -0.04219208 60.23865508 -0.03259162 68.53088379 -0.0135498 C78.1217444 0.0082196 87.71226491 0.00116848 97.30311728 -0.02085543 C105.53337058 -0.03899945 113.76352141 -0.04157264 121.99378824 -0.03110075 C126.91123436 -0.02486033 131.82852054 -0.02404526 136.74595642 -0.0372467 C141.36879355 -0.04879007 145.99119162 -0.04080729 150.61398125 -0.01766968 C152.31193245 -0.01237447 154.00992053 -0.01391023 155.70785713 -0.02272034 C158.02326847 -0.03362792 160.33726696 -0.01997212 162.65258789 0 C164.59715252 0.00226215 164.59715252 0.00226215 166.58100128 0.00457001 C170.37945337 0.59373295 171.56996904 1.44814819 173.82629395 4.50793457 C174.38879395 7.44543457 174.38879395 7.44543457 173.82629395 10.50793457 C171.19675919 13.85810599 169.71091391 15.34265492 165.47357082 16.13434696 C164.18549054 16.13493327 162.89741026 16.13551958 161.57029724 16.13612366 C160.85014216 16.14321804 160.12998709 16.15031243 159.38800913 16.1576218 C156.98009082 16.17519399 154.57378846 16.15710295 152.16589355 16.13903809 C150.43767055 16.1441772 148.70945278 16.15145842 146.98124695 16.16072083 C142.29114414 16.17924277 137.60160945 16.16629189 132.91153026 16.14663053 C128.00465779 16.13025187 123.09782152 16.13905571 118.19093323 16.14414978 C109.9517 16.14867119 101.71269378 16.13279692 93.47351074 16.1048584 C83.94453474 16.07279566 74.41596792 16.07282619 64.88696283 16.09007317 C55.7229708 16.10592923 46.55912896 16.09921132 37.39514351 16.08213615 C33.4936785 16.07525918 29.59233363 16.0763047 25.69087029 16.08368111 C21.09836876 16.09133462 16.50633375 16.07924854 11.91391182 16.0518322 C10.22725433 16.04493785 8.54055336 16.04486163 6.85389709 16.05204773 C4.55384417 16.06071906 2.25523871 16.04482809 -0.04469299 16.02259827 C-1.33239625 16.01979135 -2.62009951 16.01698442 -3.94682407 16.01409245 C-7.17370605 15.50793457 -7.17370605 15.50793457 -9.58801937 13.69451809 C-11.9053499 10.49903389 -11.72312825 8.35388993 -11.17370605 4.50793457 C-7.98045347 0.09597822 -5.26936946 0.00612997 0 0 Z " fill="#002244" transform="translate(205.1737060546875,315.4920654296875)"/>
<path d="M0 0 C3.990068 0.65143967 5.20036984 1.60399848 8.0625 4.5 C9.91355443 7.90854127 11.30299334 11.47334978 12.71484375 15.08203125 C13.13745987 16.12840256 13.56007599 17.17477386 13.99549866 18.25285339 C15.34400152 21.60077092 16.67222783 24.95631422 18 28.3125 C18.88864607 30.52852775 19.77860708 32.74402867 20.66992188 34.95898438 C22.38264468 39.22021582 24.08283673 43.48610122 25.77294922 47.75634766 C27.15973637 51.25446596 28.56967502 54.73953689 30.02783203 58.20849609 C30.31372696 58.8956218 30.59962189 59.5827475 30.8941803 60.29069519 C31.6233606 62.03632047 32.3630268 63.77755606 33.10375977 65.51831055 C34.13957683 68.73970952 34.39638726 71.13847601 34.0625 74.5 C32 77.4375 32 77.4375 29.0625 79.5 C25.5 79.6875 25.5 79.6875 22.0625 78.5 C17.49229267 73.66095695 13.0625 64.13185702 13.0625 57.5 C4.8125 57.5 -3.4375 57.5 -11.9375 57.5 C-12.2675 59.15 -12.5975 60.8 -12.9375 62.5 C-13.82032826 64.89586008 -14.76262494 67.27029795 -15.75 69.625 C-16.25144531 70.84445313 -16.75289063 72.06390625 -17.26953125 73.3203125 C-18.90507316 76.43818396 -19.85625075 77.87609837 -22.9375 79.5 C-26.60822466 79.43560132 -28.96863728 79.22664704 -31.9375 77 C-34.17483981 71.40665048 -32.03422217 64.9789602 -29.79266357 59.63024902 C-29.50143616 58.96851685 -29.21020874 58.30678467 -28.91015625 57.625 C-28.60547424 56.90558228 -28.30079224 56.18616455 -27.98687744 55.44494629 C-27.00205362 53.12518339 -26.00131619 50.81268536 -25 48.5 C-23.62581214 45.28311671 -22.25864128 42.06326161 -20.890625 38.84375 C-20.55086136 38.04763306 -20.21109772 37.25151611 -19.86103821 36.43127441 C-17.78569844 31.55478171 -15.78086544 26.65782806 -13.859375 21.71875 C-13.41198975 20.57148438 -12.96460449 19.42421875 -12.50366211 18.2421875 C-11.68921182 16.13587789 -10.8822929 14.02663503 -10.08422852 11.9140625 C-9.72256592 10.98335937 -9.36090332 10.05265625 -8.98828125 9.09375 C-8.68575439 8.29646484 -8.38322754 7.49917969 -8.0715332 6.67773438 C-6.12086749 2.93178428 -4.21460283 0.71737921 0 0 Z " fill="#022446" transform="translate(272.9375,113.5)"/>
<path d="M0 0 C16.17 0 32.34 0 49 0 C49 16.5 49 33 49 50 C43.86999278 46.57999519 39.35063722 43.00862923 34.68359375 39.0234375 C31.30997456 36.47971881 28.38324324 35.25149877 24.25 34.5 C16.05989391 35.76001632 9.31371085 43.08596003 3.1875 48.2421875 C1 50 1 50 0 50 C0 33.5 0 17 0 0 Z " fill="#95C8FA" transform="translate(220,434)"/>
<path d="M0 0 C3.02225786 2.21334286 3.90352636 3.41088127 4.5146637 7.14280701 C4.52396156 8.99882286 4.52396156 8.99882286 4.53344727 10.89233398 C4.54206284 11.57739014 4.55067841 12.26244629 4.55955505 12.96826172 C4.5822176 15.22792583 4.57547623 17.48634989 4.56640625 19.74609375 C4.57164211 21.32023995 4.57791845 22.894383 4.58518982 24.46852112 C4.59559473 27.76635509 4.59103215 31.0637576 4.57641602 34.36157227 C4.55923523 38.58316628 4.58271252 42.80339835 4.61790562 47.02484035 C4.63989172 50.27546672 4.63843523 53.52576787 4.6301403 56.77644539 C4.62932129 58.33254553 4.63617537 59.88866966 4.65091133 61.44470024 C4.66837994 63.62340236 4.65380065 65.79966642 4.63110352 67.97827148 C4.62966087 69.83548073 4.62966087 69.83548073 4.62818909 71.73020935 C3.82381855 75.9170431 2.34405426 77.43009725 -1 80 C-4.625 80.0625 -4.625 80.0625 -8 79 C-10.43738911 76.63641233 -10.96951231 75.24768386 -11.38768005 71.85046387 C-11.39308304 70.61010376 -11.39848602 69.36974365 -11.40405273 68.09179688 C-11.41091599 67.40513443 -11.41777924 66.71847198 -11.42485046 66.01100159 C-11.44311588 63.74670597 -11.43928208 61.4831033 -11.43359375 59.21875 C-11.43815533 57.64220962 -11.44346083 56.06567124 -11.44947815 54.48913574 C-11.45840842 51.18717361 -11.45598677 47.88545335 -11.44604492 44.58349609 C-11.43454825 40.35302569 -11.45477702 36.12338912 -11.48396206 31.89302826 C-11.50231061 28.63819074 -11.50203447 25.38355362 -11.49632454 22.12867737 C-11.49617119 20.5689629 -11.50222644 19.00923497 -11.51461601 17.4495697 C-11.52950188 15.26858214 -11.51886964 13.08914237 -11.50170898 10.90820312 C-11.50154282 9.66784302 -11.50137665 8.42748291 -11.50120544 7.14953613 C-10.42863088 0.40956078 -6.31352631 -0.90193233 0 0 Z " fill="#002245" transform="translate(329,114)"/>
<path d="M0 0 C3.58880268 4.30254214 4.52200925 8.6510811 6 14 C2.37 14 -1.26 14 -5 14 C-2.05357143 3.82142857 -2.05357143 3.82142857 0 0 Z " fill="#8DBFF1" transform="translate(273,142)"/>
</svg>
